<svg id="ID_logo_white" xmlns="http://www.w3.org/2000/svg" xmlns:xlink="http://www.w3.org/1999/xlink" width="260" height="79.838" viewBox="0 0 260 79.838">
  <defs>
    <clipPath id="clip-path">
      <rect id="Rectangle_14" data-name="Rectangle 14" width="260" height="79.838" fill="none"/>
    </clipPath>
  </defs>
  <g id="Group_24" data-name="Group 24" clip-path="url(#clip-path)">
    <path id="Path_349" data-name="Path 349" d="M9.952,13.793H.919V11.1H13.284V30.613H9.952ZM8.628,4.439a2.51,2.51,0,0,1,2.649-2.57,2.51,2.51,0,0,1,2.649,2.57,2.487,2.487,0,0,1-2.649,2.57,2.487,2.487,0,0,1-2.649-2.57" transform="translate(0.285 0.579)" fill="#fff"/>
    <path id="Path_350" data-name="Path 350" d="M19.389,9.03h2.729l.282,3.292h.161c2.047-2.128,4.3-3.774,7.347-3.774,4.616,0,6.743,2.731,6.743,7.868V28.541H33.32V16.858c0-3.694-1.285-5.419-4.456-5.419-2.328,0-3.894,1.165-6.143,3.493V28.541H19.389Z" transform="translate(6.017 2.652)" fill="#fff"/>
    <path id="Path_351" data-name="Path 351" d="M42.541,22.322V13.088H37V10.6l5.661-.2L43.1,4.136h2.77V10.4h9.555v2.69H45.873v9.274c0,3.492,1.165,5.3,4.937,5.3a12.833,12.833,0,0,0,4.657-.883l.723,2.448a17,17,0,0,1-6.1,1.165c-5.7,0-7.547-3.252-7.547-8.069" transform="translate(11.482 1.283)" fill="#fff"/>
    <path id="Path_352" data-name="Path 352" d="M55.379,18.745a9.809,9.809,0,0,1,9.957-10.2c5.62,0,8.913,3.653,8.913,9.153a13.209,13.209,0,0,1-.162,2.007h-16.5v-2.57H72.121l-.843.924c0-4.616-2.289-6.905-5.862-6.905-3.613,0-6.746,2.729-6.746,7.588,0,5.058,3.293,7.627,7.629,7.627a10.631,10.631,0,0,0,5.941-1.846l1.205,2.167A13.364,13.364,0,0,1,65.9,29.022c-5.862,0-10.519-3.774-10.519-10.277" transform="translate(17.185 2.652)" fill="#fff"/>
    <path id="Path_353" data-name="Path 353" d="M76.117,9.03h2.769l.322,4.616h.08A10.287,10.287,0,0,1,88,8.548a8.2,8.2,0,0,1,3.854.8l-.763,2.85a9.782,9.782,0,0,0-3.613-.642c-2.931,0-5.7,1.486-8.03,5.581v11.4H76.117Z" transform="translate(23.621 2.652)" fill="#fff"/>
    <path id="Path_354" data-name="Path 354" d="M101.842,13.793H92.81V11.1h12.365V30.613h-3.333Zm-1.323-9.354a2.651,2.651,0,0,1,5.3,0,2.651,2.651,0,0,1-5.3,0" transform="translate(28.801 0.579)" fill="#fff"/>
    <path id="Path_355" data-name="Path 355" d="M110.514,21.4a9.809,9.809,0,0,1,9.957-10.2c5.62,0,8.911,3.653,8.911,9.153a13.4,13.4,0,0,1-.161,2.007h-16.5v-2.57h14.533l-.843.924c0-4.616-2.288-6.905-5.861-6.905-3.614,0-6.746,2.731-6.746,7.588,0,5.058,3.292,7.627,7.627,7.627a10.625,10.625,0,0,0,5.942-1.846l1.205,2.167a13.368,13.368,0,0,1-7.549,2.328c-5.861,0-10.518-3.774-10.518-10.277M117.9,6.744,123.6,0l2.328,2.247-6.3,6.143Z" transform="translate(34.295 -0.001)" fill="#fff"/>
    <path id="Path_356" data-name="Path 356" d="M131.251,9.03h2.769l.322,4.616h.08a10.287,10.287,0,0,1,8.712-5.1,8.2,8.2,0,0,1,3.854.8l-.763,2.85a9.787,9.787,0,0,0-3.613-.642c-2.931,0-5.7,1.486-8.03,5.581v11.4h-3.332Z" transform="translate(40.73 2.652)" fill="#fff"/>
    <path id="Path_357" data-name="Path 357" d="M147.025,18.825c0-6.544,4.5-10.277,9.635-10.277s9.635,3.733,9.635,10.277c0,6.464-4.5,10.2-9.635,10.2s-9.635-3.733-9.635-10.2m15.857,0c0-4.5-2.49-7.507-6.223-7.507s-6.223,3.011-6.223,7.507c0,4.456,2.49,7.427,6.223,7.427s6.223-2.97,6.223-7.427" transform="translate(45.625 2.652)" fill="#fff"/>
    <path id="Path_358" data-name="Path 358" d="M165.1,8.916h3.413l4.5,11.039q1.144,2.952,2.169,5.781h.16c.683-1.887,1.325-3.813,2.128-5.781l4.5-11.039h3.213l-8.11,19.511h-3.734Z" transform="translate(51.232 2.766)" fill="#fff"/>
    <path id="Path_359" data-name="Path 359" d="M0,57.617C0,51.273,4.215,47.34,8.833,47.34a8.369,8.369,0,0,1,5.861,2.49h.081l-.161-3.573V38.748h3.332V67.333H15.215l-.28-2.57h-.121a9.376,9.376,0,0,1-6.383,3.052C3.373,67.815,0,64.12,0,57.617m14.614,4.5V52.4a7.236,7.236,0,0,0-5.1-2.249c-3.373,0-6.1,2.972-6.1,7.428C3.413,62.234,5.582,65,9.154,65c1.927,0,3.733-.964,5.46-2.891" transform="translate(0 12.024)" fill="#fff"/>
    <path id="Path_360" data-name="Path 360" d="M20.983,48.145h2.77l.321,4.616h.08a10.285,10.285,0,0,1,8.711-5.1,8.208,8.208,0,0,1,3.854.8l-.763,2.851a9.778,9.778,0,0,0-3.613-.643c-2.93,0-5.7,1.486-8.028,5.581v11.4H20.983Zm1.846-9.154,1.4-1.284,4.737,4.536h.161l4.737-4.536,1.406,1.284-4.536,5.62H27.366Z" transform="translate(6.511 11.701)" fill="#fff"/>
    <path id="Path_361" data-name="Path 361" d="M37,55.5a9.809,9.809,0,0,1,9.956-10.2c5.621,0,8.913,3.653,8.913,9.153a13.4,13.4,0,0,1-.161,2.007h-16.5V53.9H53.742l-.844.924c0-4.616-2.288-6.905-5.86-6.905-3.614,0-6.746,2.729-6.746,7.588,0,5.058,3.293,7.627,7.627,7.627a10.639,10.639,0,0,0,5.942-1.846l1.2,2.167a13.36,13.36,0,0,1-7.547,2.328C41.658,65.779,37,62.005,37,55.5" transform="translate(11.482 14.058)" fill="#fff"/>
    <path id="Path_362" data-name="Path 362" d="M54.828,45.673h3.413l4.5,11.039q1.144,2.952,2.169,5.781h.16c.683-1.887,1.325-3.813,2.128-5.781l4.5-11.039H74.9l-8.11,19.511H63.059Z" transform="translate(17.014 14.173)" fill="#fff"/>
    <path id="Path_363" data-name="Path 363" d="M237.027,55.582c0-6.389-4.287-10.089-9.273-10.261V45.3H83.147c-5.138,0-9.635,3.733-9.635,10.278,0,6.462,4.5,10.2,9.635,10.2H227.754v-.016c4.986-.173,9.273-3.871,9.273-10.181m-161.94,0c0-4.962,3.145-8.286,7.861-8.286s7.863,3.324,7.863,8.286c0,4.918-3.146,8.2-7.863,8.2s-7.861-3.28-7.861-8.2m152.667,7.386v.037H89.979a10.3,10.3,0,0,0,2.8-7.427,10.421,10.421,0,0,0-2.813-7.508H227.754v.038c3.525.194,5.861,3.125,5.861,7.47,0,4.306-2.336,7.2-5.861,7.39" transform="translate(22.812 14.058)" fill="#fff"/>
    <path id="Path_364" data-name="Path 364" d="M81.791,61.615h0a5,5,0,0,1-1.938-.354,7.213,7.213,0,0,1-2.089-1.468,6.127,6.127,0,0,1-1.23-1.72,7.874,7.874,0,0,1-.577-3.847A6.575,6.575,0,0,1,78.4,49.144a6.116,6.116,0,0,1,5.522-1.052,6.918,6.918,0,0,1,4.66,5.794c.046.237.084.489.114.746a5.838,5.838,0,0,1-.349,2.932,6.537,6.537,0,0,1-1.88,2.6,8.85,8.85,0,0,1-4.679,1.454M82.2,48.25a5.951,5.951,0,0,0-3.544,1.237,6.157,6.157,0,0,0-2.275,4.758,7.517,7.517,0,0,0,.533,3.639,5.706,5.706,0,0,0,1.139,1.6,6.845,6.845,0,0,0,1.964,1.386,4.574,4.574,0,0,0,1.777.321,8.4,8.4,0,0,0,4.443-1.38,6.071,6.071,0,0,0,1.727-2.41,5.4,5.4,0,0,0,.318-2.718c-.028-.246-.064-.487-.107-.715A6.5,6.5,0,0,0,83.8,48.5a5.314,5.314,0,0,0-1.6-.249" transform="translate(23.565 14.841)" fill="#fff"/>
    <path id="Path_365" data-name="Path 365" d="M81.186,58.919h0a3.265,3.265,0,0,1-1.266-.231,4.776,4.776,0,0,1-1.354-.95,4,4,0,0,1-.8-1.119,5.086,5.086,0,0,1-.376-2.491,4.265,4.265,0,0,1,1.592-3.3,3.971,3.971,0,0,1,3.586-.681A4.489,4.489,0,0,1,85.591,53.9c.031.161.055.321.072.481a3.8,3.8,0,0,1-.228,1.907,4.159,4.159,0,0,1-1.225,1.69,5.716,5.716,0,0,1-3.024.939m.257-8.518a3.724,3.724,0,0,0-2.213.773,3.849,3.849,0,0,0-1.419,2.974,4.7,4.7,0,0,0,.334,2.281,3.45,3.45,0,0,0,.708.995,4.24,4.24,0,0,0,1.229.87,2.841,2.841,0,0,0,1.1.2,5.263,5.263,0,0,0,2.787-.867,3.8,3.8,0,0,0,1.073-1.5,3.36,3.36,0,0,0,.2-1.692c-.018-.149-.039-.3-.068-.451a4.066,4.066,0,0,0-2.735-3.426,3.338,3.338,0,0,0-1-.155" transform="translate(24.012 15.508)" fill="#fff"/>
    <path id="Path_366" data-name="Path 366" d="M80.638,55.4h0a1.223,1.223,0,0,1-.473-.088,1.681,1.681,0,0,1-.493-.343,1.462,1.462,0,0,1-.3-.413,1.828,1.828,0,0,1-.14-.9,1.558,1.558,0,0,1,.587-1.205,1.46,1.46,0,0,1,1.318-.248,1.636,1.636,0,0,1,1.1,1.357c.01.056.02.113.026.169a1.392,1.392,0,0,1-.086.706,1.517,1.517,0,0,1-.457.625,2.022,2.022,0,0,1-1.086.337m.086-2.833a1.1,1.1,0,0,0-.653.231,1.133,1.133,0,0,0-.415.879,1.457,1.457,0,0,0,.1.689,1.022,1.022,0,0,0,.2.29,1.358,1.358,0,0,0,.367.263,1.432,1.432,0,0,0,1.162-.21,1.15,1.15,0,0,0,.307-.436.977.977,0,0,0,.055-.49c-.005-.047-.012-.093-.021-.14a1.381,1.381,0,0,0-.377-.768,1.363,1.363,0,0,0-.436-.262.949.949,0,0,0-.29-.046" transform="translate(24.587 16.181)" fill="#fff"/>
    <path id="Path_367" data-name="Path 367" d="M184.026,21.468a9.809,9.809,0,0,1,9.956-10.2c5.62,0,8.911,3.653,8.911,9.153a13.6,13.6,0,0,1-.16,2.007h-16.5v-2.57h14.531l-.843.924c0-4.616-2.288-6.905-5.861-6.905-3.614,0-6.744,2.731-6.744,7.588,0,5.058,3.292,7.627,7.626,7.627a10.643,10.643,0,0,0,5.944-1.846l1.2,2.167a13.368,13.368,0,0,1-7.549,2.328c-5.861,0-10.517-3.774-10.517-10.277m7.386-14.653,5.7-6.744,2.33,2.247-6.3,6.143Z" transform="translate(57.107 0.021)" fill="#fff"/>
  </g>
</svg>
