<svg id="matfix_logo" xmlns="http://www.w3.org/2000/svg" xmlns:xlink="http://www.w3.org/1999/xlink" width="40" height="10.421" viewBox="0 0 40 10.421">
  <defs>
    <clipPath id="clip-path">
      <rect id="Rectangle_13" data-name="Rectangle 13" width="40" height="10.421" fill="none"/>
    </clipPath>
  </defs>
  <rect id="Rectangle_12" data-name="Rectangle 12" width="1.784" height="1.328" transform="translate(31.29)" fill="#fff"/>
  <g id="Group_23" data-name="Group 23">
    <g id="Group_22" data-name="Group 22" clip-path="url(#clip-path)">
      <path id="Path_345" data-name="Path 345" d="M8.6,92.816A2.708,2.708,0,0,0,6.37,94.047a2.168,2.168,0,0,0-2.161-1.231,2.655,2.655,0,0,0-2.262,1.2H1.918v-1H0v7.4H2.032V96.123c0-1.446.973-1.7,1.374-1.7,1.288,0,1.231.988,1.231,1.846v4.151H6.67V96.294c0-.916.215-1.875,1.36-1.875s1.245.816,1.245,1.8v4.194h2.033V95.464A2.394,2.394,0,0,0,8.6,92.816" transform="translate(0 -90.197)" fill="#fff"/>
      <path id="Path_346" data-name="Path 346" d="M453.253,94.92c0-1.775-1.775-2.1-3.249-2.1-1.66,0-3.364.587-3.478,2.476h2.033c.072-.8.558-1.116,1.346-1.116.716,0,1.317.143,1.317,1,.086,1.66-4.9-.143-4.924,3.22,0,1.517,1.1,2.219,2.519,2.219a3.373,3.373,0,0,0,2.491-.916,3.022,3.022,0,0,0,.143.716h2.061a3.79,3.79,0,0,1-.258-1.646Zm-2.032,2.634a1.506,1.506,0,0,1-1.646,1.7c-.658,0-1.245-.2-1.245-.945s.573-.973,1.2-1.088a4.047,4.047,0,0,0,1.689-.429Z" transform="translate(-433.701 -90.197)" fill="#fff"/>
      <path id="Path_347" data-name="Path 347" d="M732.416,2.375c0-.616.215-.859.774-.859h.744V0H732.86a2.168,2.168,0,0,0-2.476,2.247v.573h-2.906V.6h-2.033V2.819h-1.231v1.36h1.231V8.545c0,1.489,1.041,1.677,2.3,1.677.4,0,1.22.012,1.22.012V8.645h-.656c-.687,0-.833-.115-.833-.8V4.179h2.906v6.041h2.032V4.179h1.749V2.819h-1.749Z" transform="translate(-703.776 0.001)" fill="#fff"/>
      <path id="Path_348" data-name="Path 348" d="M1110.189,101.354l-1.437-1.437-2.307,2.3-2.287-2.3h-2.888l0,0h0v7.4l2.948.009,2.227-2.242,2.207,2.216,1.437-1.437-2.207-2.217Zm-6.887,3.971v-3.378l1.705,1.7Z" transform="translate(-1070.189 -97.097)" fill="#fff"/>
    </g>
  </g>
</svg>
